<svg width="250" height="98" viewBox="0 0 250 98" fill="none" xmlns="http://www.w3.org/2000/svg">
<path d="M2 0H0V2H2V0Z" fill="#373A40"/>
<path d="M10 0H8V2H10V0Z" fill="#373A40"/>
<path d="M16 0H18V2H16V0Z" fill="#373A40"/>
<path d="M26 0H24V2H26V0Z" fill="#373A40"/>
<path d="M32 0H34V2H32V0Z" fill="#373A40"/>
<path d="M42 0H40V2H42V0Z" fill="#373A40"/>
<path d="M48 0H50V2H48V0Z" fill="#373A40"/>
<path d="M58 0H56V2H58V0Z" fill="#373A40"/>
<path d="M64 0H66V2H64V0Z" fill="#373A40"/>
<path d="M74 0H72V2H74V0Z" fill="#373A40"/>
<path d="M80 0H82V2H80V0Z" fill="#373A40"/>
<path d="M90 0H88V2H90V0Z" fill="#373A40"/>
<path d="M96 0H98V2H96V0Z" fill="#373A40"/>
<path d="M106 0H104V2H106V0Z" fill="#373A40"/>
<path d="M112 0H114V2H112V0Z" fill="#373A40"/>
<path d="M122 0H120V2H122V0Z" fill="#373A40"/>
<path d="M128 0H130V2H128V0Z" fill="#373A40"/>
<path d="M138 0H136V2H138V0Z" fill="#373A40"/>
<path d="M144 0H146V2H144V0Z" fill="#373A40"/>
<path d="M154 0H152V2H154V0Z" fill="#373A40"/>
<path d="M160 0H162V2H160V0Z" fill="#373A40"/>
<path d="M170 0H168V2H170V0Z" fill="#373A40"/>
<path d="M176 0H178V2H176V0Z" fill="#373A40"/>
<path d="M186 0H184V2H186V0Z" fill="#373A40"/>
<path d="M192 0H194V2H192V0Z" fill="#373A40"/>
<path d="M202 0H200V2H202V0Z" fill="#373A40"/>
<path d="M208 0H210V2H208V0Z" fill="#373A40"/>
<path d="M218 0H216V2H218V0Z" fill="#373A40"/>
<path d="M224 0H226V2H224V0Z" fill="#373A40"/>
<path d="M234 0H232V2H234V0Z" fill="#373A40"/>
<path d="M240 0H242V2H240V0Z" fill="#373A40"/>
<path d="M250 0H248V2H250V0Z" fill="#373A40"/>
<path d="M2 8H0V10H2V8Z" fill="#373A40"/>
<path d="M10 8H8V10H10V8Z" fill="#373A40"/>
<path d="M16 8H18V10H16V8Z" fill="#373A40"/>
<path d="M26 8H24V10H26V8Z" fill="#373A40"/>
<path d="M32 8H34V10H32V8Z" fill="#373A40"/>
<path d="M42 8H40V10H42V8Z" fill="#373A40"/>
<path d="M48 8H50V10H48V8Z" fill="#373A40"/>
<path d="M58 8H56V10H58V8Z" fill="#373A40"/>
<path d="M64 8H66V10H64V8Z" fill="#373A40"/>
<path d="M74 8H72V10H74V8Z" fill="#373A40"/>
<path d="M80 8H82V10H80V8Z" fill="#373A40"/>
<path d="M90 8H88V10H90V8Z" fill="#373A40"/>
<path d="M96 8H98V10H96V8Z" fill="#373A40"/>
<path d="M106 8H104V10H106V8Z" fill="#373A40"/>
<path d="M112 8H114V10H112V8Z" fill="#373A40"/>
<path d="M122 8H120V10H122V8Z" fill="#373A40"/>
<path d="M128 8H130V10H128V8Z" fill="#373A40"/>
<path d="M138 8H136V10H138V8Z" fill="#373A40"/>
<path d="M144 8H146V10H144V8Z" fill="#373A40"/>
<path d="M154 8H152V10H154V8Z" fill="#373A40"/>
<path d="M160 8H162V10H160V8Z" fill="#373A40"/>
<path d="M170 8H168V10H170V8Z" fill="#373A40"/>
<path d="M176 8H178V10H176V8Z" fill="#373A40"/>
<path d="M186 8H184V10H186V8Z" fill="#373A40"/>
<path d="M192 8H194V10H192V8Z" fill="#373A40"/>
<path d="M202 8H200V10H202V8Z" fill="#373A40"/>
<path d="M208 8H210V10H208V8Z" fill="#373A40"/>
<path d="M218 8H216V10H218V8Z" fill="#373A40"/>
<path d="M224 8H226V10H224V8Z" fill="#373A40"/>
<path d="M234 8H232V10H234V8Z" fill="#373A40"/>
<path d="M240 8H242V10H240V8Z" fill="#373A40"/>
<path d="M250 8H248V10H250V8Z" fill="#373A40"/>
<path d="M2 16H0V18H2V16Z" fill="#373A40"/>
<path d="M10 16H8V18H10V16Z" fill="#373A40"/>
<path d="M16 16H18V18H16V16Z" fill="#373A40"/>
<path d="M26 16H24V18H26V16Z" fill="#373A40"/>
<path d="M32 16H34V18H32V16Z" fill="#373A40"/>
<path d="M42 16H40V18H42V16Z" fill="#373A40"/>
<path d="M48 16H50V18H48V16Z" fill="#373A40"/>
<path d="M58 16H56V18H58V16Z" fill="#373A40"/>
<path d="M64 16H66V18H64V16Z" fill="#373A40"/>
<path d="M74 16H72V18H74V16Z" fill="#373A40"/>
<path d="M80 16H82V18H80V16Z" fill="#373A40"/>
<path d="M90 16H88V18H90V16Z" fill="#373A40"/>
<path d="M96 16H98V18H96V16Z" fill="#373A40"/>
<path d="M106 16H104V18H106V16Z" fill="#373A40"/>
<path d="M112 16H114V18H112V16Z" fill="#373A40"/>
<path d="M122 16H120V18H122V16Z" fill="#373A40"/>
<path d="M128 16H130V18H128V16Z" fill="#373A40"/>
<path d="M138 16H136V18H138V16Z" fill="#373A40"/>
<path d="M144 16H146V18H144V16Z" fill="#373A40"/>
<path d="M154 16H152V18H154V16Z" fill="#373A40"/>
<path d="M160 16H162V18H160V16Z" fill="#373A40"/>
<path d="M170 16H168V18H170V16Z" fill="#373A40"/>
<path d="M176 16H178V18H176V16Z" fill="#373A40"/>
<path d="M186 16H184V18H186V16Z" fill="#373A40"/>
<path d="M192 16H194V18H192V16Z" fill="#373A40"/>
<path d="M202 16H200V18H202V16Z" fill="#373A40"/>
<path d="M208 16H210V18H208V16Z" fill="#373A40"/>
<path d="M218 16H216V18H218V16Z" fill="#373A40"/>
<path d="M224 16H226V18H224V16Z" fill="#373A40"/>
<path d="M234 16H232V18H234V16Z" fill="#373A40"/>
<path d="M240 16H242V18H240V16Z" fill="#373A40"/>
<path d="M250 16H248V18H250V16Z" fill="#373A40"/>
<path d="M2 24H0V26H2V24Z" fill="#373A40"/>
<path d="M10 24H8V26H10V24Z" fill="#373A40"/>
<path d="M16 24H18V26H16V24Z" fill="#373A40"/>
<path d="M26 24H24V26H26V24Z" fill="#373A40"/>
<path d="M32 24H34V26H32V24Z" fill="#373A40"/>
<path d="M42 24H40V26H42V24Z" fill="#373A40"/>
<path d="M48 24H50V26H48V24Z" fill="#373A40"/>
<path d="M58 24H56V26H58V24Z" fill="#373A40"/>
<path d="M64 24H66V26H64V24Z" fill="#373A40"/>
<path d="M74 24H72V26H74V24Z" fill="#373A40"/>
<path d="M80 24H82V26H80V24Z" fill="#373A40"/>
<path d="M90 24H88V26H90V24Z" fill="#373A40"/>
<path d="M96 24H98V26H96V24Z" fill="#373A40"/>
<path d="M106 24H104V26H106V24Z" fill="#373A40"/>
<path d="M112 24H114V26H112V24Z" fill="#373A40"/>
<path d="M122 24H120V26H122V24Z" fill="#373A40"/>
<path d="M128 24H130V26H128V24Z" fill="#373A40"/>
<path d="M138 24H136V26H138V24Z" fill="#373A40"/>
<path d="M144 24H146V26H144V24Z" fill="#373A40"/>
<path d="M154 24H152V26H154V24Z" fill="#373A40"/>
<path d="M160 24H162V26H160V24Z" fill="#373A40"/>
<path d="M170 24H168V26H170V24Z" fill="#373A40"/>
<path d="M176 24H178V26H176V24Z" fill="#373A40"/>
<path d="M186 24H184V26H186V24Z" fill="#373A40"/>
<path d="M192 24H194V26H192V24Z" fill="#373A40"/>
<path d="M202 24H200V26H202V24Z" fill="#373A40"/>
<path d="M208 24H210V26H208V24Z" fill="#373A40"/>
<path d="M218 24H216V26H218V24Z" fill="#373A40"/>
<path d="M224 24H226V26H224V24Z" fill="#373A40"/>
<path d="M234 24H232V26H234V24Z" fill="#373A40"/>
<path d="M240 24H242V26H240V24Z" fill="#373A40"/>
<path d="M250 24H248V26H250V24Z" fill="#373A40"/>
<path d="M2 32H0V34H2V32Z" fill="#373A40"/>
<path d="M10 32H8V34H10V32Z" fill="#373A40"/>
<path d="M16 32H18V34H16V32Z" fill="#373A40"/>
<path d="M26 32H24V34H26V32Z" fill="#373A40"/>
<path d="M32 32H34V34H32V32Z" fill="#373A40"/>
<path d="M42 32H40V34H42V32Z" fill="#373A40"/>
<path d="M48 32H50V34H48V32Z" fill="#373A40"/>
<path d="M58 32H56V34H58V32Z" fill="#373A40"/>
<path d="M64 32H66V34H64V32Z" fill="#373A40"/>
<path d="M74 32H72V34H74V32Z" fill="#373A40"/>
<path d="M80 32H82V34H80V32Z" fill="#373A40"/>
<path d="M90 32H88V34H90V32Z" fill="#373A40"/>
<path d="M96 32H98V34H96V32Z" fill="#373A40"/>
<path d="M106 32H104V34H106V32Z" fill="#373A40"/>
<path d="M112 32H114V34H112V32Z" fill="#373A40"/>
<path d="M122 32H120V34H122V32Z" fill="#373A40"/>
<path d="M128 32H130V34H128V32Z" fill="#373A40"/>
<path d="M138 32H136V34H138V32Z" fill="#373A40"/>
<path d="M144 32H146V34H144V32Z" fill="#373A40"/>
<path d="M154 32H152V34H154V32Z" fill="#373A40"/>
<path d="M160 32H162V34H160V32Z" fill="#373A40"/>
<path d="M170 32H168V34H170V32Z" fill="#373A40"/>
<path d="M176 32H178V34H176V32Z" fill="#373A40"/>
<path d="M186 32H184V34H186V32Z" fill="#373A40"/>
<path d="M192 32H194V34H192V32Z" fill="#373A40"/>
<path d="M202 32H200V34H202V32Z" fill="#373A40"/>
<path d="M208 32H210V34H208V32Z" fill="#373A40"/>
<path d="M218 32H216V34H218V32Z" fill="#373A40"/>
<path d="M224 32H226V34H224V32Z" fill="#373A40"/>
<path d="M234 32H232V34H234V32Z" fill="#373A40"/>
<path d="M240 32H242V34H240V32Z" fill="#373A40"/>
<path d="M250 32H248V34H250V32Z" fill="#373A40"/>
<path d="M2 40H0V42H2V40Z" fill="#373A40"/>
<path d="M10 40H8V42H10V40Z" fill="#373A40"/>
<path d="M16 40H18V42H16V40Z" fill="#373A40"/>
<path d="M26 40H24V42H26V40Z" fill="#373A40"/>
<path d="M32 40H34V42H32V40Z" fill="#373A40"/>
<path d="M42 40H40V42H42V40Z" fill="#373A40"/>
<path d="M48 40H50V42H48V40Z" fill="#373A40"/>
<path d="M58 40H56V42H58V40Z" fill="#373A40"/>
<path d="M64 40H66V42H64V40Z" fill="#373A40"/>
<path d="M74 40H72V42H74V40Z" fill="#373A40"/>
<path d="M80 40H82V42H80V40Z" fill="#373A40"/>
<path d="M90 40H88V42H90V40Z" fill="#373A40"/>
<path d="M96 40H98V42H96V40Z" fill="#373A40"/>
<path d="M106 40H104V42H106V40Z" fill="#373A40"/>
<path d="M112 40H114V42H112V40Z" fill="#373A40"/>
<path d="M122 40H120V42H122V40Z" fill="#373A40"/>
<path d="M128 40H130V42H128V40Z" fill="#373A40"/>
<path d="M138 40H136V42H138V40Z" fill="#373A40"/>
<path d="M144 40H146V42H144V40Z" fill="#373A40"/>
<path d="M154 40H152V42H154V40Z" fill="#373A40"/>
<path d="M160 40H162V42H160V40Z" fill="#373A40"/>
<path d="M170 40H168V42H170V40Z" fill="#373A40"/>
<path d="M176 40H178V42H176V40Z" fill="#373A40"/>
<path d="M186 40H184V42H186V40Z" fill="#373A40"/>
<path d="M192 40H194V42H192V40Z" fill="#373A40"/>
<path d="M202 40H200V42H202V40Z" fill="#373A40"/>
<path d="M208 40H210V42H208V40Z" fill="#373A40"/>
<path d="M218 40H216V42H218V40Z" fill="#373A40"/>
<path d="M224 40H226V42H224V40Z" fill="#373A40"/>
<path d="M234 40H232V42H234V40Z" fill="#373A40"/>
<path d="M240 40H242V42H240V40Z" fill="#373A40"/>
<path d="M250 40H248V42H250V40Z" fill="#373A40"/>
<path d="M2 56H0V58H2V56Z" fill="#373A40"/>
<path d="M10 56H8V58H10V56Z" fill="#373A40"/>
<path d="M16 56H18V58H16V56Z" fill="#373A40"/>
<path d="M26 56H24V58H26V56Z" fill="#373A40"/>
<path d="M32 56H34V58H32V56Z" fill="#373A40"/>
<path d="M42 56H40V58H42V56Z" fill="#373A40"/>
<path d="M48 56H50V58H48V56Z" fill="#373A40"/>
<path d="M58 56H56V58H58V56Z" fill="#373A40"/>
<path d="M64 56H66V58H64V56Z" fill="#373A40"/>
<path d="M74 56H72V58H74V56Z" fill="#373A40"/>
<path d="M80 56H82V58H80V56Z" fill="#373A40"/>
<path d="M90 56H88V58H90V56Z" fill="#373A40"/>
<path d="M96 56H98V58H96V56Z" fill="#373A40"/>
<path d="M106 56H104V58H106V56Z" fill="#373A40"/>
<path d="M112 56H114V58H112V56Z" fill="#373A40"/>
<path d="M122 56H120V58H122V56Z" fill="#373A40"/>
<path d="M128 56H130V58H128V56Z" fill="#373A40"/>
<path d="M138 56H136V58H138V56Z" fill="#373A40"/>
<path d="M144 56H146V58H144V56Z" fill="#373A40"/>
<path d="M154 56H152V58H154V56Z" fill="#373A40"/>
<path d="M160 56H162V58H160V56Z" fill="#373A40"/>
<path d="M170 56H168V58H170V56Z" fill="#373A40"/>
<path d="M176 56H178V58H176V56Z" fill="#373A40"/>
<path d="M186 56H184V58H186V56Z" fill="#373A40"/>
<path d="M192 56H194V58H192V56Z" fill="#373A40"/>
<path d="M202 56H200V58H202V56Z" fill="#373A40"/>
<path d="M208 56H210V58H208V56Z" fill="#373A40"/>
<path d="M218 56H216V58H218V56Z" fill="#373A40"/>
<path d="M224 56H226V58H224V56Z" fill="#373A40"/>
<path d="M234 56H232V58H234V56Z" fill="#373A40"/>
<path d="M240 56H242V58H240V56Z" fill="#373A40"/>
<path d="M250 56H248V58H250V56Z" fill="#373A40"/>
<path d="M2 64H0V66H2V64Z" fill="#373A40"/>
<path d="M10 64H8V66H10V64Z" fill="#373A40"/>
<path d="M16 64H18V66H16V64Z" fill="#373A40"/>
<path d="M26 64H24V66H26V64Z" fill="#373A40"/>
<path d="M32 64H34V66H32V64Z" fill="#373A40"/>
<path d="M42 64H40V66H42V64Z" fill="#373A40"/>
<path d="M48 64H50V66H48V64Z" fill="#373A40"/>
<path d="M58 64H56V66H58V64Z" fill="#373A40"/>
<path d="M64 64H66V66H64V64Z" fill="#373A40"/>
<path d="M74 64H72V66H74V64Z" fill="#373A40"/>
<path d="M80 64H82V66H80V64Z" fill="#373A40"/>
<path d="M90 64H88V66H90V64Z" fill="#373A40"/>
<path d="M96 64H98V66H96V64Z" fill="#373A40"/>
<path d="M106 64H104V66H106V64Z" fill="#373A40"/>
<path d="M112 64H114V66H112V64Z" fill="#373A40"/>
<path d="M122 64H120V66H122V64Z" fill="#373A40"/>
<path d="M128 64H130V66H128V64Z" fill="#373A40"/>
<path d="M138 64H136V66H138V64Z" fill="#373A40"/>
<path d="M144 64H146V66H144V64Z" fill="#373A40"/>
<path d="M154 64H152V66H154V64Z" fill="#373A40"/>
<path d="M160 64H162V66H160V64Z" fill="#373A40"/>
<path d="M170 64H168V66H170V64Z" fill="#373A40"/>
<path d="M176 64H178V66H176V64Z" fill="#373A40"/>
<path d="M186 64H184V66H186V64Z" fill="#373A40"/>
<path d="M192 64H194V66H192V64Z" fill="#373A40"/>
<path d="M202 64H200V66H202V64Z" fill="#373A40"/>
<path d="M208 64H210V66H208V64Z" fill="#373A40"/>
<path d="M218 64H216V66H218V64Z" fill="#373A40"/>
<path d="M224 64H226V66H224V64Z" fill="#373A40"/>
<path d="M234 64H232V66H234V64Z" fill="#373A40"/>
<path d="M240 64H242V66H240V64Z" fill="#373A40"/>
<path d="M250 64H248V66H250V64Z" fill="#373A40"/>
<path d="M2 72H0V74H2V72Z" fill="#373A40"/>
<path d="M10 72H8V74H10V72Z" fill="#373A40"/>
<path d="M16 72H18V74H16V72Z" fill="#373A40"/>
<path d="M26 72H24V74H26V72Z" fill="#373A40"/>
<path d="M32 72H34V74H32V72Z" fill="#373A40"/>
<path d="M42 72H40V74H42V72Z" fill="#373A40"/>
<path d="M48 72H50V74H48V72Z" fill="#373A40"/>
<path d="M58 72H56V74H58V72Z" fill="#373A40"/>
<path d="M64 72H66V74H64V72Z" fill="#373A40"/>
<path d="M74 72H72V74H74V72Z" fill="#373A40"/>
<path d="M80 72H82V74H80V72Z" fill="#373A40"/>
<path d="M90 72H88V74H90V72Z" fill="#373A40"/>
<path d="M96 72H98V74H96V72Z" fill="#373A40"/>
<path d="M106 72H104V74H106V72Z" fill="#373A40"/>
<path d="M112 72H114V74H112V72Z" fill="#373A40"/>
<path d="M122 72H120V74H122V72Z" fill="#373A40"/>
<path d="M128 72H130V74H128V72Z" fill="#373A40"/>
<path d="M138 72H136V74H138V72Z" fill="#373A40"/>
<path d="M144 72H146V74H144V72Z" fill="#373A40"/>
<path d="M154 72H152V74H154V72Z" fill="#373A40"/>
<path d="M160 72H162V74H160V72Z" fill="#373A40"/>
<path d="M170 72H168V74H170V72Z" fill="#373A40"/>
<path d="M176 72H178V74H176V72Z" fill="#373A40"/>
<path d="M186 72H184V74H186V72Z" fill="#373A40"/>
<path d="M192 72H194V74H192V72Z" fill="#373A40"/>
<path d="M202 72H200V74H202V72Z" fill="#373A40"/>
<path d="M208 72H210V74H208V72Z" fill="#373A40"/>
<path d="M218 72H216V74H218V72Z" fill="#373A40"/>
<path d="M224 72H226V74H224V72Z" fill="#373A40"/>
<path d="M234 72H232V74H234V72Z" fill="#373A40"/>
<path d="M240 72H242V74H240V72Z" fill="#373A40"/>
<path d="M250 72H248V74H250V72Z" fill="#373A40"/>
<path d="M2 80H0V82H2V80Z" fill="#373A40"/>
<path d="M10 80H8V82H10V80Z" fill="#373A40"/>
<path d="M16 80H18V82H16V80Z" fill="#373A40"/>
<path d="M26 80H24V82H26V80Z" fill="#373A40"/>
<path d="M32 80H34V82H32V80Z" fill="#373A40"/>
<path d="M42 80H40V82H42V80Z" fill="#373A40"/>
<path d="M48 80H50V82H48V80Z" fill="#373A40"/>
<path d="M58 80H56V82H58V80Z" fill="#373A40"/>
<path d="M64 80H66V82H64V80Z" fill="#373A40"/>
<path d="M74 80H72V82H74V80Z" fill="#373A40"/>
<path d="M80 80H82V82H80V80Z" fill="#373A40"/>
<path d="M90 80H88V82H90V80Z" fill="#373A40"/>
<path d="M96 80H98V82H96V80Z" fill="#373A40"/>
<path d="M106 80H104V82H106V80Z" fill="#373A40"/>
<path d="M112 80H114V82H112V80Z" fill="#373A40"/>
<path d="M122 80H120V82H122V80Z" fill="#373A40"/>
<path d="M128 80H130V82H128V80Z" fill="#373A40"/>
<path d="M138 80H136V82H138V80Z" fill="#373A40"/>
<path d="M144 80H146V82H144V80Z" fill="#373A40"/>
<path d="M154 80H152V82H154V80Z" fill="#373A40"/>
<path d="M160 80H162V82H160V80Z" fill="#373A40"/>
<path d="M170 80H168V82H170V80Z" fill="#373A40"/>
<path d="M176 80H178V82H176V80Z" fill="#373A40"/>
<path d="M186 80H184V82H186V80Z" fill="#373A40"/>
<path d="M192 80H194V82H192V80Z" fill="#373A40"/>
<path d="M202 80H200V82H202V80Z" fill="#373A40"/>
<path d="M208 80H210V82H208V80Z" fill="#373A40"/>
<path d="M218 80H216V82H218V80Z" fill="#373A40"/>
<path d="M224 80H226V82H224V80Z" fill="#373A40"/>
<path d="M234 80H232V82H234V80Z" fill="#373A40"/>
<path d="M240 80H242V82H240V80Z" fill="#373A40"/>
<path d="M250 80H248V82H250V80Z" fill="#373A40"/>
<path d="M2 88H0V90H2V88Z" fill="#373A40"/>
<path d="M10 88H8V90H10V88Z" fill="#373A40"/>
<path d="M16 88H18V90H16V88Z" fill="#373A40"/>
<path d="M26 88H24V90H26V88Z" fill="#373A40"/>
<path d="M32 88H34V90H32V88Z" fill="#373A40"/>
<path d="M42 88H40V90H42V88Z" fill="#373A40"/>
<path d="M48 88H50V90H48V88Z" fill="#373A40"/>
<path d="M58 88H56V90H58V88Z" fill="#373A40"/>
<path d="M64 88H66V90H64V88Z" fill="#373A40"/>
<path d="M74 88H72V90H74V88Z" fill="#373A40"/>
<path d="M80 88H82V90H80V88Z" fill="#373A40"/>
<path d="M90 88H88V90H90V88Z" fill="#373A40"/>
<path d="M96 88H98V90H96V88Z" fill="#373A40"/>
<path d="M106 88H104V90H106V88Z" fill="#373A40"/>
<path d="M112 88H114V90H112V88Z" fill="#373A40"/>
<path d="M122 88H120V90H122V88Z" fill="#373A40"/>
<path d="M128 88H130V90H128V88Z" fill="#373A40"/>
<path d="M138 88H136V90H138V88Z" fill="#373A40"/>
<path d="M144 88H146V90H144V88Z" fill="#373A40"/>
<path d="M154 88H152V90H154V88Z" fill="#373A40"/>
<path d="M160 88H162V90H160V88Z" fill="#373A40"/>
<path d="M170 88H168V90H170V88Z" fill="#373A40"/>
<path d="M176 88H178V90H176V88Z" fill="#373A40"/>
<path d="M186 88H184V90H186V88Z" fill="#373A40"/>
<path d="M192 88H194V90H192V88Z" fill="#373A40"/>
<path d="M202 88H200V90H202V88Z" fill="#373A40"/>
<path d="M208 88H210V90H208V88Z" fill="#373A40"/>
<path d="M218 88H216V90H218V88Z" fill="#373A40"/>
<path d="M224 88H226V90H224V88Z" fill="#373A40"/>
<path d="M234 88H232V90H234V88Z" fill="#373A40"/>
<path d="M240 88H242V90H240V88Z" fill="#373A40"/>
<path d="M250 88H248V90H250V88Z" fill="#373A40"/>
<path d="M2 96H0V98H2V96Z" fill="#373A40"/>
<path d="M10 96H8V98H10V96Z" fill="#373A40"/>
<path d="M16 96H18V98H16V96Z" fill="#373A40"/>
<path d="M26 96H24V98H26V96Z" fill="#373A40"/>
<path d="M32 96H34V98H32V96Z" fill="#373A40"/>
<path d="M42 96H40V98H42V96Z" fill="#373A40"/>
<path d="M48 96H50V98H48V96Z" fill="#373A40"/>
<path d="M58 96H56V98H58V96Z" fill="#373A40"/>
<path d="M64 96H66V98H64V96Z" fill="#373A40"/>
<path d="M74 96H72V98H74V96Z" fill="#373A40"/>
<path d="M80 96H82V98H80V96Z" fill="#373A40"/>
<path d="M90 96H88V98H90V96Z" fill="#373A40"/>
<path d="M96 96H98V98H96V96Z" fill="#373A40"/>
<path d="M106 96H104V98H106V96Z" fill="#373A40"/>
<path d="M112 96H114V98H112V96Z" fill="#373A40"/>
<path d="M122 96H120V98H122V96Z" fill="#373A40"/>
<path d="M128 96H130V98H128V96Z" fill="#373A40"/>
<path d="M138 96H136V98H138V96Z" fill="#373A40"/>
<path d="M144 96H146V98H144V96Z" fill="#373A40"/>
<path d="M154 96H152V98H154V96Z" fill="#373A40"/>
<path d="M160 96H162V98H160V96Z" fill="#373A40"/>
<path d="M170 96H168V98H170V96Z" fill="#373A40"/>
<path d="M176 96H178V98H176V96Z" fill="#373A40"/>
<path d="M186 96H184V98H186V96Z" fill="#373A40"/>
<path d="M192 96H194V98H192V96Z" fill="#373A40"/>
<path d="M202 96H200V98H202V96Z" fill="#373A40"/>
<path d="M208 96H210V98H208V96Z" fill="#373A40"/>
<path d="M218 96H216V98H218V96Z" fill="#373A40"/>
<path d="M224 96H226V98H224V96Z" fill="#373A40"/>
<path d="M234 96H232V98H234V96Z" fill="#373A40"/>
<path d="M240 96H242V98H240V96Z" fill="#373A40"/>
<path d="M250 96H248V98H250V96Z" fill="#373A40"/>
<path d="M2 40H0V42H2V40Z" fill="#373A40"/>
<path d="M10 40H8V42H10V40Z" fill="#373A40"/>
<path d="M16 40H18V42H16V40Z" fill="#373A40"/>
<path d="M26 40H24V42H26V40Z" fill="#373A40"/>
<path d="M32 40H34V42H32V40Z" fill="#373A40"/>
<path d="M42 40H40V42H42V40Z" fill="#373A40"/>
<path d="M48 40H50V42H48V40Z" fill="#373A40"/>
<path d="M58 40H56V42H58V40Z" fill="#373A40"/>
<path d="M64 40H66V42H64V40Z" fill="#373A40"/>
<path d="M74 40H72V42H74V40Z" fill="#373A40"/>
<path d="M80 40H82V42H80V40Z" fill="#373A40"/>
<path d="M90 40H88V42H90V40Z" fill="#373A40"/>
<path d="M96 40H98V42H96V40Z" fill="#373A40"/>
<path d="M106 40H104V42H106V40Z" fill="#373A40"/>
<path d="M112 40H114V42H112V40Z" fill="#373A40"/>
<path d="M122 40H120V42H122V40Z" fill="#373A40"/>
<path d="M128 40H130V42H128V40Z" fill="#373A40"/>
<path d="M138 40H136V42H138V40Z" fill="#373A40"/>
<path d="M144 40H146V42H144V40Z" fill="#373A40"/>
<path d="M154 40H152V42H154V40Z" fill="#373A40"/>
<path d="M160 40H162V42H160V40Z" fill="#373A40"/>
<path d="M170 40H168V42H170V40Z" fill="#373A40"/>
<path d="M176 40H178V42H176V40Z" fill="#373A40"/>
<path d="M186 40H184V42H186V40Z" fill="#373A40"/>
<path d="M192 40H194V42H192V40Z" fill="#373A40"/>
<path d="M202 40H200V42H202V40Z" fill="#373A40"/>
<path d="M208 40H210V42H208V40Z" fill="#373A40"/>
<path d="M218 40H216V42H218V40Z" fill="#373A40"/>
<path d="M224 40H226V42H224V40Z" fill="#373A40"/>
<path d="M234 40H232V42H234V40Z" fill="#373A40"/>
<path d="M240 40H242V42H240V40Z" fill="#373A40"/>
<path d="M250 40H248V42H250V40Z" fill="#373A40"/>
<path d="M2 48H0V50H2V48Z" fill="#373A40"/>
<path d="M10 48H8V50H10V48Z" fill="#373A40"/>
<path d="M16 48H18V50H16V48Z" fill="#373A40"/>
<path d="M26 48H24V50H26V48Z" fill="#373A40"/>
<path d="M32 48H34V50H32V48Z" fill="#373A40"/>
<path d="M42 48H40V50H42V48Z" fill="#373A40"/>
<path d="M48 48H50V50H48V48Z" fill="#373A40"/>
<path d="M58 48H56V50H58V48Z" fill="#373A40"/>
<path d="M64 48H66V50H64V48Z" fill="#373A40"/>
<path d="M74 48H72V50H74V48Z" fill="#373A40"/>
<path d="M80 48H82V50H80V48Z" fill="#373A40"/>
<path d="M90 48H88V50H90V48Z" fill="#373A40"/>
<path d="M96 48H98V50H96V48Z" fill="#373A40"/>
<path d="M106 48H104V50H106V48Z" fill="#373A40"/>
<path d="M112 48H114V50H112V48Z" fill="#373A40"/>
<path d="M122 48H120V50H122V48Z" fill="#373A40"/>
<path d="M128 48H130V50H128V48Z" fill="#373A40"/>
<path d="M138 48H136V50H138V48Z" fill="#373A40"/>
<path d="M144 48H146V50H144V48Z" fill="#373A40"/>
<path d="M154 48H152V50H154V48Z" fill="#373A40"/>
<path d="M160 48H162V50H160V48Z" fill="#373A40"/>
<path d="M170 48H168V50H170V48Z" fill="#373A40"/>
<path d="M176 48H178V50H176V48Z" fill="#373A40"/>
<path d="M186 48H184V50H186V48Z" fill="#373A40"/>
<path d="M192 48H194V50H192V48Z" fill="#373A40"/>
<path d="M202 48H200V50H202V48Z" fill="#373A40"/>
<path d="M208 48H210V50H208V48Z" fill="#373A40"/>
<path d="M218 48H216V50H218V48Z" fill="#373A40"/>
<path d="M224 48H226V50H224V48Z" fill="#373A40"/>
<path d="M234 48H232V50H234V48Z" fill="#373A40"/>
<path d="M240 48H242V50H240V48Z" fill="#373A40"/>
<path d="M250 48H248V50H250V48Z" fill="#373A40"/>
</svg>
