<svg xmlns="http://www.w3.org/2000/svg" width="16" height="16" viewBox="0 0 16 16" fill="none">
<path fill-rule="evenodd" clip-rule="evenodd" d="M4 3.99925C3.82319 3.99925 3.65362 4.06949 3.5286 4.19451C3.40357 4.31953 3.33333 4.4891 3.33333 4.66591V12.6659C3.33333 12.8427 3.40357 13.0123 3.5286 13.1373C3.65362 13.2623 3.82319 13.3326 4 13.3326H12C12.1768 13.3326 12.3464 13.2623 12.4714 13.1373C12.5964 13.0123 12.6667 12.8427 12.6667 12.6659V4.66591C12.6667 4.4891 12.5964 4.31953 12.4714 4.19451C12.3464 4.06949 12.1768 3.99925 12 3.99925H4ZM2.58579 3.2517C2.96086 2.87663 3.46957 2.66591 4 2.66591H12C12.5304 2.66591 13.0391 2.87663 13.4142 3.2517C13.7893 3.62677 14 4.13548 14 4.66591V12.6659C14 13.1963 13.7893 13.7051 13.4142 14.0801C13.0391 14.4552 12.5304 14.6659 12 14.6659H4C3.46957 14.6659 2.96086 14.4552 2.58579 14.0801C2.21071 13.7051 2 13.1963 2 12.6659V4.66591C2 4.13548 2.21071 3.62677 2.58579 3.2517Z" fill="#909296"/>
<path fill-rule="evenodd" clip-rule="evenodd" d="M10.6667 1.33258C11.0349 1.33258 11.3333 1.63106 11.3333 1.99925V4.66591C11.3333 5.0341 11.0349 5.33258 10.6667 5.33258C10.2985 5.33258 10 5.0341 10 4.66591V1.99925C10 1.63106 10.2985 1.33258 10.6667 1.33258Z" fill="#909296"/>
<path fill-rule="evenodd" clip-rule="evenodd" d="M5.33333 1.33258C5.70152 1.33258 6 1.63106 6 1.99925V4.66591C6 5.0341 5.70152 5.33258 5.33333 5.33258C4.96514 5.33258 4.66667 5.0341 4.66667 4.66591V1.99925C4.66667 1.63106 4.96514 1.33258 5.33333 1.33258Z" fill="#909296"/>
<path fill-rule="evenodd" clip-rule="evenodd" d="M2 7.33258C2 6.96439 2.29848 6.66591 2.66667 6.66591H13.3333C13.7015 6.66591 14 6.96439 14 7.33258C14 7.70077 13.7015 7.99925 13.3333 7.99925H2.66667C2.29848 7.99925 2 7.70077 2 7.33258Z" fill="#909296"/>
<path fill-rule="evenodd" clip-rule="evenodd" d="M4.66667 9.99925C4.66667 9.63106 4.96514 9.33258 5.33333 9.33258H6.66667C7.03486 9.33258 7.33333 9.63106 7.33333 9.99925V11.3326C7.33333 11.7008 7.03486 11.9992 6.66667 11.9992H5.33333C4.96514 11.9992 4.66667 11.7008 4.66667 11.3326V9.99925Z" fill="#909296"/>
</svg>