<svg xmlns="http://www.w3.org/2000/svg" width="16" height="16" viewBox="0 0 16 16" fill="none">
<path fill-rule="evenodd" clip-rule="evenodd" d="M2.66667 7.99925C2.66667 7.63106 2.96515 7.33258 3.33334 7.33258H12.6667C13.0349 7.33258 13.3333 7.63106 13.3333 7.99925C13.3333 8.36744 13.0349 8.66591 12.6667 8.66591H3.33334C2.96515 8.66591 2.66667 8.36744 2.66667 7.99925Z" fill="#909296"/>
<path fill-rule="evenodd" clip-rule="evenodd" d="M13.1381 7.52784C13.3984 7.78819 13.3984 8.2103 13.1381 8.47065L9.13808 12.4707C8.87773 12.731 8.45562 12.731 8.19527 12.4707C7.93492 12.2103 7.93492 11.7882 8.19527 11.5278L12.1953 7.52784C12.4556 7.26749 12.8777 7.26749 13.1381 7.52784Z" fill="#909296"/>
<path fill-rule="evenodd" clip-rule="evenodd" d="M8.19527 3.52784C8.45562 3.26749 8.87773 3.26749 9.13808 3.52784L13.1381 7.52784C13.3984 7.78819 13.3984 8.2103 13.1381 8.47065C12.8777 8.731 12.4556 8.731 12.1953 8.47065L8.19527 4.47065C7.93492 4.2103 7.93492 3.78819 8.19527 3.52784Z" fill="#909296"/>
</svg>