<svg width="24" height="24" viewBox="0 0 24 24" fill="none" xmlns="http://www.w3.org/2000/svg">
<path fill-rule="evenodd" clip-rule="evenodd" d="M19.2814 3.88037C19.367 3.85672 19.451 3.8337 19.5336 3.81107C20.2554 3.61335 20.8715 3.44458 21.5244 3.12938C21.7014 3.03353 21.9084 2.99035 22.1214 3.01639C22.6231 3.07771 23.0001 3.50364 23.0001 4.009V4.01C23.0001 4.10188 22.9875 4.19183 22.9636 4.27781C22.771 5.02891 22.2635 6.06098 21.8659 6.84146C21.7632 7.04303 21.6687 7.22578 21.5821 7.39334C21.4832 7.58482 21.3945 7.75646 21.3154 7.91365C21.2571 8.02964 21.213 8.12036 21.182 8.18781C21.1742 9.48965 20.9951 10.7851 20.6492 12.0406L20.6478 12.0454C19.4203 16.4151 16.2065 19.3463 12.3131 20.4773L12.3129 20.4774C8.8769 21.4748 4.99812 20.7729 1.52153 18.878C1.11374 18.6558 0.912642 18.182 1.03606 17.7343C1.15947 17.2865 1.57491 16.9827 2.039 17.0008C3.44502 17.0555 4.6941 16.7024 5.94842 16.0586C4.65017 15.2563 3.71768 14.3214 3.07835 13.3112C2.19621 11.9175 1.91904 10.4549 1.9319 9.1525C1.94469 7.85782 2.24338 6.70504 2.53097 5.88588C2.67574 5.47352 2.82037 5.13817 2.93066 4.90251C2.98588 4.78449 3.03275 4.69093 3.06707 4.62463C3.08423 4.59147 3.09829 4.56508 3.1087 4.54581L3.12155 4.52228L3.12581 4.51459L3.12739 4.51178L3.12803 4.51063C3.12831 4.51013 3.12858 4.50965 4.0001 5L3.12858 4.50965C3.29619 4.21174 3.60438 4.02008 3.9457 4.00148C4.28703 3.98288 4.61421 4.13993 4.8132 4.41788C6.29896 6.49315 8.49453 7.76324 10.9998 7.97257C10.9883 5.86731 12.3127 4.0592 14.2694 3.3265C15.8937 2.7183 17.8162 2.64783 19.2814 3.88037ZM4.3005 6.90626C4.10579 7.54233 3.94013 8.32902 3.93181 9.17225C3.92191 10.174 4.13337 11.2385 4.7683 12.2416C5.40179 13.2425 6.50381 14.2568 8.39974 15.0833C8.73518 15.2296 8.96396 15.5473 8.99621 15.9119C9.02847 16.2764 8.85905 16.6294 8.5545 16.8323C7.60281 17.4662 6.62154 18.0204 5.56931 18.4105C7.72357 19.0398 9.85922 19.107 11.7551 18.5567M4.3005 6.90626C6.314 8.94798 9.03725 10.0761 12.0257 9.99967C12.5678 9.98581 13.0001 9.54232 13.0001 9V8H13.0002L13 7.98629C12.9831 6.75511 13.7462 5.65803 14.9708 5.1995C16.3614 4.67878 17.5144 4.83118 18.2517 5.66322C18.509 5.95359 18.911 6.06892 19.2831 5.95911C19.4914 5.89766 19.7106 5.83784 19.938 5.77579C20.0242 5.75226 20.1116 5.72842 20.2 5.70404C20.1617 5.78029 20.1229 5.85687 20.0838 5.93354C19.9951 6.10772 19.9026 6.2869 19.8145 6.45748C19.7078 6.66402 19.6077 6.85797 19.5286 7.01523C19.454 7.16363 19.384 7.30691 19.3312 7.42747C19.3052 7.48679 19.2762 7.55655 19.2521 7.62755C19.2516 7.62877 19.2512 7.63018 19.2506 7.63175C19.2363 7.67347 19.1811 7.83457 19.1821 8.02754C19.1886 9.20303 19.0337 10.3739 18.7216 11.5072C17.6906 15.174 15.0211 17.6079 11.7553 18.5566" fill="white"/>
</svg>
