<svg width="121" height="19" viewBox="0 0 121 19" fill="none" xmlns="http://www.w3.org/2000/svg">
<path d="M14.2031 9.59766C14.2031 10.3711 14.1016 11.1172 13.8984 11.8359C13.7031 12.5469 13.4219 13.2148 13.0547 13.8398C12.6875 14.457 12.25 15.0234 11.7422 15.5391C11.2344 16.0469 10.668 16.4844 10.043 16.8516C9.41797 17.2188 8.74609 17.5039 8.02734 17.707C7.31641 17.9023 6.57422 18 5.80078 18H0.738281V1.19531H5.80078C6.57422 1.19531 7.31641 1.29688 8.02734 1.5C8.74609 1.69531 9.41797 1.97656 10.043 2.34375C10.668 2.71094 11.2344 3.15234 11.7422 3.66797C12.25 4.17578 12.6875 4.74219 13.0547 5.36719C13.4219 5.98438 13.7031 6.65234 13.8984 7.37109C14.1016 8.08203 14.2031 8.82422 14.2031 9.59766ZM10.8398 9.59766C10.8398 8.90234 10.707 8.25 10.4414 7.64062C10.1836 7.03125 9.82422 6.5 9.36328 6.04688C8.91016 5.58594 8.375 5.22266 7.75781 4.95703C7.14844 4.69141 6.49609 4.55859 5.80078 4.55859H4.125V14.6367H5.80078C6.49609 14.6367 7.14844 14.5078 7.75781 14.25C8.375 13.9844 8.91016 13.625 9.36328 13.1719C9.82422 12.7109 10.1836 12.1758 10.4414 11.5664C10.707 10.9492 10.8398 10.293 10.8398 9.59766ZM28.2539 18H27.4805L26.2383 16.2773C25.9336 16.5508 25.6094 16.8086 25.2656 17.0508C24.9297 17.2852 24.5742 17.4922 24.1992 17.6719C23.8242 17.8438 23.4375 17.9805 23.0391 18.082C22.6484 18.1836 22.25 18.2344 21.8438 18.2344C20.9609 18.2344 20.1289 18.0859 19.3477 17.7891C18.5742 17.4922 17.8945 17.0625 17.3086 16.5C16.7305 15.9297 16.2734 15.2344 15.9375 14.4141C15.6016 13.5938 15.4336 12.6602 15.4336 11.6133C15.4336 10.6367 15.6016 9.74219 15.9375 8.92969C16.2734 8.10938 16.7305 7.40625 17.3086 6.82031C17.8945 6.23438 18.5742 5.78125 19.3477 5.46094C20.1289 5.13281 20.9609 4.96875 21.8438 4.96875C22.25 4.96875 22.6523 5.01953 23.0508 5.12109C23.4492 5.22266 23.8359 5.36328 24.2109 5.54297C24.5859 5.72266 24.9414 5.93359 25.2773 6.17578C25.6211 6.41797 25.9414 6.67969 26.2383 6.96094L27.4805 5.47266H28.2539V18ZM25.0312 11.6133C25.0312 11.1758 24.9453 10.7539 24.7734 10.3477C24.6094 9.93359 24.3828 9.57031 24.0938 9.25781C23.8047 8.9375 23.4648 8.68359 23.0742 8.49609C22.6914 8.30078 22.2812 8.20312 21.8438 8.20312C21.4062 8.20312 20.9922 8.27734 20.6016 8.42578C20.2188 8.57422 19.8828 8.79297 19.5938 9.08203C19.3125 9.37109 19.0898 9.73047 18.9258 10.1602C18.7617 10.582 18.6797 11.0664 18.6797 11.6133C18.6797 12.1602 18.7617 12.6484 18.9258 13.0781C19.0898 13.5 19.3125 13.8555 19.5938 14.1445C19.8828 14.4336 20.2188 14.6523 20.6016 14.8008C20.9922 14.9492 21.4062 15.0234 21.8438 15.0234C22.2812 15.0234 22.6914 14.9297 23.0742 14.7422C23.4648 14.5469 23.8047 14.293 24.0938 13.9805C24.3828 13.6602 24.6094 13.2969 24.7734 12.8906C24.9453 12.4766 25.0312 12.0508 25.0312 11.6133ZM36.9961 18C36.2227 18 35.4961 17.8555 34.8164 17.5664C34.1367 17.2695 33.5391 16.8672 33.0234 16.3594C32.5156 15.8438 32.1133 15.2461 31.8164 14.5664C31.5273 13.8867 31.3828 13.1602 31.3828 12.3867V8.66016H29.8242V5.47266H31.3828V0.457031H34.5703V5.47266H39.4219V8.66016H34.5703V12.3867C34.5703 12.7227 34.6328 13.0391 34.7578 13.3359C34.8828 13.625 35.0547 13.8789 35.2734 14.0977C35.4922 14.3164 35.75 14.4922 36.0469 14.625C36.3438 14.75 36.6602 14.8125 36.9961 14.8125H39.4219V18H36.9961ZM53.3789 18H52.6055L51.3633 16.2773C51.0586 16.5508 50.7344 16.8086 50.3906 17.0508C50.0547 17.2852 49.6992 17.4922 49.3242 17.6719C48.9492 17.8438 48.5625 17.9805 48.1641 18.082C47.7734 18.1836 47.375 18.2344 46.9688 18.2344C46.0859 18.2344 45.2539 18.0859 44.4727 17.7891C43.6992 17.4922 43.0195 17.0625 42.4336 16.5C41.8555 15.9297 41.3984 15.2344 41.0625 14.4141C40.7266 13.5938 40.5586 12.6602 40.5586 11.6133C40.5586 10.6367 40.7266 9.74219 41.0625 8.92969C41.3984 8.10938 41.8555 7.40625 42.4336 6.82031C43.0195 6.23438 43.6992 5.78125 44.4727 5.46094C45.2539 5.13281 46.0859 4.96875 46.9688 4.96875C47.375 4.96875 47.7773 5.01953 48.1758 5.12109C48.5742 5.22266 48.9609 5.36328 49.3359 5.54297C49.7109 5.72266 50.0664 5.93359 50.4023 6.17578C50.7461 6.41797 51.0664 6.67969 51.3633 6.96094L52.6055 5.47266H53.3789V18ZM50.1562 11.6133C50.1562 11.1758 50.0703 10.7539 49.8984 10.3477C49.7344 9.93359 49.5078 9.57031 49.2188 9.25781C48.9297 8.9375 48.5898 8.68359 48.1992 8.49609C47.8164 8.30078 47.4062 8.20312 46.9688 8.20312C46.5312 8.20312 46.1172 8.27734 45.7266 8.42578C45.3438 8.57422 45.0078 8.79297 44.7188 9.08203C44.4375 9.37109 44.2148 9.73047 44.0508 10.1602C43.8867 10.582 43.8047 11.0664 43.8047 11.6133C43.8047 12.1602 43.8867 12.6484 44.0508 13.0781C44.2148 13.5 44.4375 13.8555 44.7188 14.1445C45.0078 14.4336 45.3438 14.6523 45.7266 14.8008C46.1172 14.9492 46.5312 15.0234 46.9688 15.0234C47.4062 15.0234 47.8164 14.9297 48.1992 14.7422C48.5898 14.5469 48.9297 14.293 49.2188 13.9805C49.5078 13.6602 49.7344 13.2969 49.8984 12.8906C50.0703 12.4766 50.1562 12.0508 50.1562 11.6133ZM69.6094 12.9609C69.6094 13.6562 69.4766 14.3086 69.2109 14.918C68.9453 15.5273 68.582 16.0625 68.1211 16.5234C67.668 16.9766 67.1367 17.3359 66.5273 17.6016C65.918 17.8672 65.2656 18 64.5703 18H56.168V1.19531H64.5703C65.2656 1.19531 65.918 1.32812 66.5273 1.59375C67.1367 1.85938 67.668 2.22266 68.1211 2.68359C68.582 3.13672 68.9453 3.66797 69.2109 4.27734C69.4766 4.88672 69.6094 5.53906 69.6094 6.23438C69.6094 6.54688 69.5664 6.86719 69.4805 7.19531C69.3945 7.52344 69.2734 7.83984 69.1172 8.14453C68.9609 8.44922 68.7734 8.72656 68.5547 8.97656C68.3359 9.22656 68.0938 9.43359 67.8281 9.59766C68.1016 9.74609 68.3477 9.94922 68.5664 10.207C68.7852 10.457 68.9727 10.7344 69.1289 11.0391C69.2852 11.3438 69.4023 11.6641 69.4805 12C69.5664 12.3281 69.6094 12.6484 69.6094 12.9609ZM59.5312 14.6367H64.5703C64.8047 14.6367 65.0234 14.5938 65.2266 14.5078C65.4297 14.4219 65.6055 14.3047 65.7539 14.1562C65.9102 14 66.0312 13.8203 66.1172 13.6172C66.2031 13.4141 66.2461 13.1953 66.2461 12.9609C66.2461 12.7266 66.2031 12.5078 66.1172 12.3047C66.0312 12.1016 65.9102 11.9258 65.7539 11.7773C65.6055 11.6211 65.4297 11.5 65.2266 11.4141C65.0234 11.3281 64.8047 11.2852 64.5703 11.2852H59.5312V14.6367ZM59.5312 7.92188H64.5703C64.8047 7.92188 65.0234 7.87891 65.2266 7.79297C65.4297 7.70703 65.6055 7.58984 65.7539 7.44141C65.9102 7.28516 66.0312 7.10547 66.1172 6.90234C66.2031 6.69141 66.2461 6.46875 66.2461 6.23438C66.2461 6 66.2031 5.78125 66.1172 5.57812C66.0312 5.375 65.9102 5.19922 65.7539 5.05078C65.6055 4.89453 65.4297 4.77344 65.2266 4.6875C65.0234 4.60156 64.8047 4.55859 64.5703 4.55859H59.5312V7.92188ZM76.8047 14.9297C76.9297 14.9688 77.0547 14.9961 77.1797 15.0117C77.3047 15.0195 77.4297 15.0234 77.5547 15.0234C77.8672 15.0234 78.168 14.9805 78.457 14.8945C78.7461 14.8086 79.0156 14.6875 79.2656 14.5312C79.5234 14.3672 79.75 14.1719 79.9453 13.9453C80.1484 13.7109 80.3125 13.4531 80.4375 13.1719L82.7812 15.5273C82.4844 15.9492 82.1406 16.3281 81.75 16.6641C81.3672 17 80.9492 17.2852 80.4961 17.5195C80.0508 17.7539 79.5781 17.9297 79.0781 18.0469C78.5859 18.1719 78.0781 18.2344 77.5547 18.2344C76.6719 18.2344 75.8398 18.0703 75.0586 17.7422C74.2852 17.4141 73.6055 16.957 73.0195 16.3711C72.4414 15.7852 71.9844 15.0898 71.6484 14.2852C71.3125 13.4727 71.1445 12.582 71.1445 11.6133C71.1445 10.6211 71.3125 9.71484 71.6484 8.89453C71.9844 8.07422 72.4414 7.375 73.0195 6.79688C73.6055 6.21875 74.2852 5.76953 75.0586 5.44922C75.8398 5.12891 76.6719 4.96875 77.5547 4.96875C78.0781 4.96875 78.5898 5.03125 79.0898 5.15625C79.5898 5.28125 80.0625 5.46094 80.5078 5.69531C80.9609 5.92969 81.3828 6.21875 81.7734 6.5625C82.1641 6.89844 82.5078 7.27734 82.8047 7.69922L76.8047 14.9297ZM78.4453 8.33203C78.2969 8.27734 78.1484 8.24219 78 8.22656C77.8594 8.21094 77.7109 8.20312 77.5547 8.20312C77.1172 8.20312 76.7031 8.28516 76.3125 8.44922C75.9297 8.60547 75.5938 8.83203 75.3047 9.12891C75.0234 9.42578 74.8008 9.78516 74.6367 10.207C74.4727 10.6211 74.3906 11.0898 74.3906 11.6133C74.3906 11.7305 74.3945 11.8633 74.4023 12.0117C74.418 12.1602 74.4375 12.3125 74.4609 12.4688C74.4922 12.6172 74.5273 12.7617 74.5664 12.9023C74.6055 13.043 74.6562 13.168 74.7188 13.2773L78.4453 8.33203ZM96.4805 18H95.707L94.4648 16.2773C94.1602 16.5508 93.8359 16.8086 93.4922 17.0508C93.1562 17.2852 92.8008 17.4922 92.4258 17.6719C92.0508 17.8438 91.6641 17.9805 91.2656 18.082C90.875 18.1836 90.4766 18.2344 90.0703 18.2344C89.1875 18.2344 88.3555 18.0859 87.5742 17.7891C86.8008 17.4922 86.1211 17.0625 85.5352 16.5C84.957 15.9297 84.5 15.2344 84.1641 14.4141C83.8281 13.5938 83.6602 12.6602 83.6602 11.6133C83.6602 10.6367 83.8281 9.74219 84.1641 8.92969C84.5 8.10938 84.957 7.40625 85.5352 6.82031C86.1211 6.23438 86.8008 5.78125 87.5742 5.46094C88.3555 5.13281 89.1875 4.96875 90.0703 4.96875C90.4766 4.96875 90.8789 5.01953 91.2773 5.12109C91.6758 5.22266 92.0625 5.36328 92.4375 5.54297C92.8125 5.72266 93.168 5.93359 93.5039 6.17578C93.8477 6.41797 94.168 6.67969 94.4648 6.96094L95.707 5.47266H96.4805V18ZM93.2578 11.6133C93.2578 11.1758 93.1719 10.7539 93 10.3477C92.8359 9.93359 92.6094 9.57031 92.3203 9.25781C92.0312 8.9375 91.6914 8.68359 91.3008 8.49609C90.918 8.30078 90.5078 8.20312 90.0703 8.20312C89.6328 8.20312 89.2188 8.27734 88.8281 8.42578C88.4453 8.57422 88.1094 8.79297 87.8203 9.08203C87.5391 9.37109 87.3164 9.73047 87.1523 10.1602C86.9883 10.582 86.9062 11.0664 86.9062 11.6133C86.9062 12.1602 86.9883 12.6484 87.1523 13.0781C87.3164 13.5 87.5391 13.8555 87.8203 14.1445C88.1094 14.4336 88.4453 14.6523 88.8281 14.8008C89.2188 14.9492 89.6328 15.0234 90.0703 15.0234C90.5078 15.0234 90.918 14.9297 91.3008 14.7422C91.6914 14.5469 92.0312 14.293 92.3203 13.9805C92.6094 13.6602 92.8359 13.2969 93 12.8906C93.1719 12.4766 93.2578 12.0508 93.2578 11.6133ZM105.82 18H98.5078V14.8125H105.82C106.039 14.8125 106.227 14.7344 106.383 14.5781C106.539 14.4219 106.617 14.2344 106.617 14.0156C106.617 13.7891 106.539 13.6406 106.383 13.5703C106.227 13.5 106.039 13.4648 105.82 13.4648H102.492C101.938 13.4648 101.418 13.3594 100.934 13.1484C100.449 12.9375 100.027 12.6523 99.668 12.293C99.3086 11.9258 99.0234 11.5 98.8125 11.0156C98.6094 10.5312 98.5078 10.0117 98.5078 9.45703C98.5078 8.90234 98.6094 8.38281 98.8125 7.89844C99.0234 7.41406 99.3086 6.99219 99.668 6.63281C100.027 6.27344 100.449 5.99219 100.934 5.78906C101.418 5.57812 101.938 5.47266 102.492 5.47266H108.973V8.66016H102.492C102.273 8.66016 102.086 8.73828 101.93 8.89453C101.773 9.05078 101.695 9.23828 101.695 9.45703C101.695 9.68359 101.773 9.87891 101.93 10.043C102.086 10.1992 102.273 10.2773 102.492 10.2773H105.82C106.367 10.2773 106.883 10.3711 107.367 10.5586C107.852 10.7383 108.273 10.9922 108.633 11.3203C108.992 11.6484 109.277 12.043 109.488 12.5039C109.699 12.9648 109.805 13.4688 109.805 14.0156C109.805 14.5703 109.699 15.0898 109.488 15.5742C109.277 16.0508 108.992 16.4727 108.633 16.8398C108.273 17.1992 107.852 17.4844 107.367 17.6953C106.883 17.8984 106.367 18 105.82 18ZM117.809 18C117.035 18 116.309 17.8555 115.629 17.5664C114.949 17.2695 114.352 16.8672 113.836 16.3594C113.328 15.8438 112.926 15.2461 112.629 14.5664C112.34 13.8867 112.195 13.1602 112.195 12.3867V8.66016H110.637V5.47266H112.195V0.457031H115.383V5.47266H120.234V8.66016H115.383V12.3867C115.383 12.7227 115.445 13.0391 115.57 13.3359C115.695 13.625 115.867 13.8789 116.086 14.0977C116.305 14.3164 116.562 14.4922 116.859 14.625C117.156 14.75 117.473 14.8125 117.809 14.8125H120.234V18H117.809Z" fill="white"/>
</svg>
