<svg width="234" height="24" viewBox="0 0 234 24" fill="none" xmlns="http://www.w3.org/2000/svg">
<path d="M196.971 20.8023H194.312V12.9061H193.017V10.218H194.312V9.71402C194.312 9.06176 194.433 8.44904 194.673 7.87584C194.919 7.30266 195.254 6.80523 195.676 6.38357C196.104 5.95532 196.601 5.61931 197.166 5.37554C197.73 5.12518 198.334 5 198.977 5H200.973V7.68808H198.977C198.691 7.68808 198.425 7.74078 198.178 7.8462C197.938 7.94502 197.727 8.08668 197.545 8.27116C197.37 8.44904 197.23 8.66316 197.127 8.91352C197.023 9.1573 196.971 9.42414 196.971 9.71402V10.218H200.233V12.9061H196.971V20.8023Z" fill="#909296"/>
<path d="M185.188 20.8023H182.53V10.218H183.173L184.049 11.2458C184.478 10.8505 184.961 10.5475 185.5 10.3366C186.045 10.1192 186.613 10.0105 187.204 10.0105C187.84 10.0105 188.441 10.1357 189.005 10.386C189.57 10.6298 190.064 10.9691 190.486 11.404C190.908 11.8322 191.239 12.3362 191.479 12.916C191.725 13.4892 191.849 14.1019 191.849 14.7542V20.8023H189.19V14.7542C189.19 14.4775 189.139 14.2172 189.035 13.9734C188.931 13.7231 188.788 13.5057 188.606 13.3212C188.424 13.1367 188.213 12.9918 187.973 12.8863C187.733 12.7809 187.477 12.7282 187.204 12.7282C186.925 12.7282 186.662 12.7809 186.415 12.8863C186.169 12.9918 185.954 13.1367 185.773 13.3212C185.591 13.5057 185.448 13.7231 185.344 13.9734C185.24 14.2172 185.188 14.4775 185.188 14.7542V20.8023Z" fill="#909296"/>
<path d="M204.917 20.4367C205.481 20.6805 206.085 20.8023 206.728 20.8023H208.743V18.1143H206.728C206.449 18.1143 206.186 18.0616 205.939 17.9561C205.692 17.8441 205.478 17.6959 205.296 17.5114C205.115 17.327 204.972 17.1128 204.868 16.8691C204.764 16.6187 204.712 16.3519 204.712 16.0686V12.9259H208.743V10.2378H204.712V6.00803H202.064V10.2378H200.768V12.9259H202.064V16.0686C202.064 16.7208 202.184 17.3335 202.424 17.9067C202.67 18.4799 203.005 18.9839 203.427 19.4188C203.855 19.847 204.352 20.1863 204.917 20.4367Z" fill="#909296"/>
<path d="M221.714 13.7165C221.714 14.3687 221.629 14.9979 221.461 15.6041C221.298 16.2036 221.065 16.7669 220.76 17.294C220.454 17.8145 220.091 18.2922 219.669 18.727C219.247 19.1552 218.776 19.5242 218.257 19.8338C217.738 20.1435 217.179 20.384 216.582 20.5553C215.991 20.72 215.375 20.8023 214.732 20.8023H210.525V12.0839L212.444 10.2376H213.34V17.966H214.732C215.31 17.966 215.852 17.8573 216.358 17.6399C216.871 17.4159 217.316 17.1128 217.692 16.7307C218.075 16.342 218.374 15.8907 218.588 15.3768C218.809 14.8563 218.919 14.3029 218.919 13.7165C218.919 13.1301 218.809 12.58 218.588 12.0661C218.374 11.5522 218.075 11.1042 217.692 10.7221C217.316 10.3333 216.871 10.027 216.358 9.80296C215.852 9.57896 215.31 9.46696 214.732 9.46696L210.525 9.46728V6.63064H214.732C215.375 6.63064 215.991 6.71629 216.582 6.88758C217.179 7.0523 217.738 7.28948 218.257 7.59914C218.776 7.9088 219.247 8.28104 219.669 8.71588C220.091 9.14412 220.454 9.62178 220.76 10.1489C221.065 10.6693 221.298 11.2327 221.461 11.8388C221.629 12.4383 221.714 13.0642 221.714 13.7165Z" fill="#909296"/>
<path fill-rule="evenodd" clip-rule="evenodd" d="M233.311 17.6893C233.59 17.0041 233.73 16.2464 233.73 15.4163C233.73 14.6059 233.59 13.8614 233.311 13.1828C233.032 12.4976 232.652 11.9047 232.172 11.404C231.692 10.9032 231.127 10.5145 230.478 10.2378C229.835 9.9545 229.144 9.81284 228.404 9.81284C228.163 9.81284 227.917 9.8392 227.664 9.8919C227.41 9.93802 227.164 10.0072 226.923 10.0994C226.69 10.1917 226.469 10.3103 226.261 10.4552C226.06 10.6002 225.888 10.7649 225.745 10.9494V6.00803H223.077V15.4163C223.077 16.2333 223.217 16.9844 223.496 17.6695C223.775 18.3482 224.155 18.9345 224.635 19.4287C225.122 19.9228 225.687 20.3082 226.329 20.5849C226.979 20.8616 227.67 21 228.404 21C229.144 21 229.835 20.8649 230.478 20.5948C231.127 20.3247 231.692 19.9459 232.172 19.4583C232.652 18.9642 233.032 18.3745 233.311 17.6893ZM230.838 14.2798C230.981 14.629 231.052 15.0078 231.052 15.4163C231.052 15.8248 230.981 16.2036 230.838 16.5528C230.702 16.902 230.513 17.2051 230.273 17.462C230.033 17.719 229.751 17.9232 229.426 18.0747C229.108 18.2197 228.767 18.2922 228.404 18.2922C228.04 18.2922 227.696 18.2197 227.371 18.0747C227.053 17.9232 226.774 17.719 226.534 17.462C226.294 17.2051 226.106 16.902 225.969 16.5528C225.833 16.2036 225.765 15.8248 225.765 15.4163C225.765 15.0474 225.833 14.6916 225.969 14.349C226.106 13.9998 226.294 13.6934 226.534 13.4299C226.774 13.1598 227.053 12.9456 227.371 12.7875C227.696 12.6228 228.04 12.5405 228.404 12.5405C228.767 12.5405 229.108 12.6129 229.426 12.7579C229.751 12.9028 230.033 13.1038 230.273 13.3607C230.513 13.6177 230.702 13.924 230.838 14.2798Z" fill="#909296"/>
<path d="M166.75 12H167.84V19.7695L167.746 21H166.75V12ZM172.123 17.7773V17.9004C172.123 18.3613 172.068 18.7891 171.959 19.1836C171.85 19.5742 171.689 19.9141 171.479 20.2031C171.268 20.4922 171.01 20.7168 170.705 20.877C170.4 21.0371 170.051 21.1172 169.656 21.1172C169.254 21.1172 168.9 21.0488 168.596 20.9121C168.295 20.7715 168.041 20.5703 167.834 20.3086C167.627 20.0469 167.461 19.7305 167.336 19.3594C167.215 18.9883 167.131 18.5703 167.084 18.1055V17.5664C167.131 17.0977 167.215 16.6777 167.336 16.3066C167.461 15.9355 167.627 15.6191 167.834 15.3574C168.041 15.0918 168.295 14.8906 168.596 14.7539C168.896 14.6133 169.246 14.543 169.645 14.543C170.043 14.543 170.396 14.6211 170.705 14.7773C171.014 14.9297 171.271 15.1484 171.479 15.4336C171.689 15.7188 171.85 16.0605 171.959 16.459C172.068 16.8535 172.123 17.293 172.123 17.7773ZM171.033 17.9004V17.7773C171.033 17.4609 171.004 17.1641 170.945 16.8867C170.887 16.6055 170.793 16.3594 170.664 16.1484C170.535 15.9336 170.365 15.7656 170.154 15.6445C169.943 15.5195 169.684 15.457 169.375 15.457C169.102 15.457 168.863 15.5039 168.66 15.5977C168.461 15.6914 168.291 15.8184 168.15 15.9785C168.01 16.1348 167.895 16.3145 167.805 16.5176C167.719 16.7168 167.654 16.9238 167.611 17.1387V18.5508C167.674 18.8242 167.775 19.0879 167.916 19.3418C168.061 19.5918 168.252 19.7969 168.49 19.957C168.732 20.1172 169.031 20.1973 169.387 20.1973C169.68 20.1973 169.93 20.1387 170.137 20.0215C170.348 19.9004 170.518 19.7344 170.646 19.5234C170.779 19.3125 170.877 19.0684 170.939 18.791C171.002 18.5137 171.033 18.2168 171.033 17.9004Z" fill="#909296"/>
<path d="M175.605 20.3438L177.369 14.6602H178.529L175.986 21.9785C175.927 22.1348 175.849 22.3027 175.752 22.4824C175.658 22.666 175.537 22.8398 175.388 23.0039C175.24 23.168 175.06 23.3008 174.849 23.4023C174.642 23.5078 174.394 23.5605 174.105 23.5605C174.019 23.5605 173.91 23.5488 173.777 23.5254C173.644 23.502 173.55 23.4824 173.496 23.4668L173.49 22.5879C173.521 22.5918 173.57 22.5957 173.636 22.5996C173.707 22.6074 173.755 22.6113 173.783 22.6113C174.029 22.6113 174.238 22.5781 174.41 22.5117C174.582 22.4492 174.726 22.3418 174.843 22.1895C174.964 22.041 175.068 21.8359 175.154 21.5742L175.605 20.3438ZM174.31 14.6602L175.957 19.582L176.238 20.7246L175.459 21.123L173.127 14.6602H174.31Z" fill="#909296"/>
<path d="M13.5216 12.2551C13.5216 13.0382 13.4196 13.7937 13.2157 14.5214C13.0195 15.2413 12.7371 15.9176 12.3683 16.5504C11.9996 17.1753 11.5603 17.7488 11.0503 18.2709C10.5404 18.7851 9.97156 19.2281 9.34392 19.5999C8.71629 19.9717 8.04158 20.2604 7.3198 20.4661C6.60586 20.6638 5.86055 20.7627 5.08385 20.7627H0V3.74753H5.08385C5.86055 3.74753 6.60586 3.85036 7.3198 4.05603C8.04158 4.25379 8.71629 4.53856 9.34392 4.91035C9.97156 5.28214 10.5404 5.72907 11.0503 6.25115C11.5603 6.76533 11.9996 7.33883 12.3683 7.97165C12.7371 8.59657 13.0195 9.27291 13.2157 10.0007C13.4196 10.7205 13.5216 11.472 13.5216 12.2551ZM10.1442 12.2551C10.1442 11.5511 10.0108 10.8906 9.74404 10.2736C9.48514 9.65656 9.12425 9.11866 8.66137 8.65985C8.20634 8.19314 7.66892 7.82531 7.04913 7.55636C6.43719 7.28741 5.78209 7.15293 5.08385 7.15293H3.401V17.3573H5.08385C5.78209 17.3573 6.43719 17.2268 7.04913 16.9657C7.66892 16.6968 8.20634 16.3329 8.66137 15.8741C9.12425 15.4074 9.48514 14.8655 9.74404 14.2485C10.0108 13.6236 10.1442 12.9591 10.1442 12.2551Z" fill="white"/>
<path d="M27.6317 20.7627H26.855L25.6075 19.0185C25.3016 19.2953 24.976 19.5564 24.6308 19.8016C24.2934 20.0389 23.9365 20.2485 23.5599 20.4305C23.1833 20.6045 22.7949 20.7429 22.3948 20.8457C22.0025 20.9486 21.6024 21 21.1945 21C20.3079 21 19.4724 20.8497 18.6878 20.5491C17.9111 20.2485 17.2286 19.8134 16.6402 19.2439C16.0596 18.6664 15.6007 17.9624 15.2633 17.1318C14.926 16.3013 14.7573 15.356 14.7573 14.296C14.7573 13.3072 14.926 12.4015 15.2633 11.5788C15.6007 10.7482 16.0596 10.0363 16.6402 9.44298C17.2286 8.8497 17.9111 8.3909 18.6878 8.06658C19.4724 7.73434 20.3079 7.56823 21.1945 7.56823C21.6024 7.56823 22.0065 7.61964 22.4066 7.72248C22.8067 7.82531 23.1951 7.9677 23.5716 8.14964C23.9482 8.33158 24.3052 8.54516 24.6425 8.79038C24.9877 9.0356 25.3094 9.30059 25.6075 9.58537L26.855 8.07844H27.6317V20.7627ZM24.3954 14.296C24.3954 13.853 24.3091 13.4258 24.1365 13.0145C23.9718 12.5953 23.7442 12.2274 23.454 11.911C23.1637 11.5867 22.8224 11.3296 22.4301 11.1397C22.0457 10.942 21.6338 10.8431 21.1945 10.8431C20.7551 10.8431 20.3393 10.9183 19.947 11.0686C19.5626 11.2189 19.2253 11.4403 18.935 11.733C18.6525 12.0257 18.4289 12.3896 18.2642 12.8247C18.0994 13.2518 18.0171 13.7423 18.0171 14.296C18.0171 14.8497 18.0994 15.3441 18.2642 15.7792C18.4289 16.2063 18.6525 16.5662 18.935 16.8589C19.2253 17.1516 19.5626 17.3731 19.947 17.5234C20.3393 17.6737 20.7551 17.7488 21.1945 17.7488C21.6338 17.7488 22.0457 17.6539 22.4301 17.4641C22.8224 17.2663 23.1637 17.0092 23.454 16.6928C23.7442 16.3685 23.9718 16.0007 24.1365 15.5893C24.3091 15.1701 24.3954 14.739 24.3954 14.296Z" fill="white"/>
<path d="M36.4107 20.7627C35.634 20.7627 34.9044 20.6163 34.2218 20.3237C33.5393 20.0231 32.9391 19.6157 32.4213 19.1015C31.9113 18.5794 31.5073 17.9743 31.2092 17.2861C30.9189 16.5979 30.7738 15.8622 30.7738 15.0791V11.3059H29.2086V8.07844H30.7738V3H33.9747V8.07844H38.8467V11.3059H33.9747V15.0791C33.9747 15.4192 34.0375 15.7396 34.163 16.0402C34.2885 16.3329 34.4611 16.59 34.6808 16.8115C34.9005 17.033 35.1594 17.2109 35.4575 17.3454C35.7556 17.472 36.0734 17.5353 36.4107 17.5353H38.8467V20.7627H36.4107Z" fill="white"/>
<path d="M52.8626 20.7627H52.0859L50.8385 19.0185C50.5325 19.2953 50.2069 19.5564 49.8617 19.8016C49.5244 20.0389 49.1674 20.2485 48.7908 20.4305C48.4142 20.6045 48.0259 20.7429 47.6258 20.8457C47.2335 20.9486 46.8334 21 46.4254 21C45.5389 21 44.7033 20.8497 43.9188 20.5491C43.1421 20.2485 42.4595 19.8134 41.8711 19.2439C41.2906 18.6664 40.8316 17.9624 40.4943 17.1318C40.1569 16.3013 39.9882 15.356 39.9882 14.296C39.9882 13.3072 40.1569 12.4015 40.4943 11.5788C40.8316 10.7482 41.2906 10.0363 41.8711 9.44298C42.4595 8.8497 43.1421 8.3909 43.9188 8.06658C44.7033 7.73434 45.5389 7.56823 46.4254 7.56823C46.8334 7.56823 47.2374 7.61964 47.6375 7.72248C48.0377 7.82531 48.426 7.9677 48.8026 8.14964C49.1792 8.33158 49.5361 8.54516 49.8735 8.79038C50.2187 9.0356 50.5404 9.30059 50.8385 9.58537L52.0859 8.07844H52.8626V20.7627ZM49.6264 14.296C49.6264 13.853 49.5401 13.4258 49.3675 13.0145C49.2027 12.5953 48.9752 12.2274 48.6849 11.911C48.3946 11.5867 48.0533 11.3296 47.6611 11.1397C47.2766 10.942 46.8648 10.8431 46.4254 10.8431C45.9861 10.8431 45.5703 10.9183 45.178 11.0686C44.7936 11.2189 44.4562 11.4403 44.1659 11.733C43.8835 12.0257 43.6599 12.3896 43.4951 12.8247C43.3304 13.2518 43.248 13.7423 43.248 14.296C43.248 14.8497 43.3304 15.3441 43.4951 15.7792C43.6599 16.2063 43.8835 16.5662 44.1659 16.8589C44.4562 17.1516 44.7936 17.3731 45.178 17.5234C45.5703 17.6737 45.9861 17.7488 46.4254 17.7488C46.8648 17.7488 47.2766 17.6539 47.6611 17.4641C48.0533 17.2663 48.3946 17.0092 48.6849 16.6928C48.9752 16.3685 49.2027 16.0007 49.3675 15.5893C49.5401 15.1701 49.6264 14.739 49.6264 14.296Z" fill="white"/>
<path d="M69.1615 15.6605C69.1615 16.3645 69.0281 17.025 68.7614 17.6421C68.4947 18.2591 68.1298 18.8009 67.667 19.2676C67.2119 19.7264 66.6784 20.0903 66.0665 20.3593C65.4545 20.6282 64.7994 20.7627 64.1012 20.7627H55.6634V3.74753H64.1012C64.7994 3.74753 65.4545 3.882 66.0665 4.15096C66.6784 4.41991 67.2119 4.78774 67.667 5.25445C68.1298 5.71325 68.4947 6.25115 68.7614 6.86816C69.0281 7.48517 69.1615 8.14568 69.1615 8.8497C69.1615 9.16612 69.1184 9.49044 69.0321 9.82268C68.9458 10.1549 68.8242 10.4753 68.6673 10.7838C68.5103 11.0923 68.3221 11.3731 68.1024 11.6262C67.8827 11.8794 67.6395 12.089 67.3728 12.2551C67.6473 12.4054 67.8945 12.6111 68.1142 12.8721C68.3338 13.1252 68.5221 13.4061 68.679 13.7146C68.8359 14.0231 68.9536 14.3474 69.0321 14.6875C69.1184 15.0198 69.1615 15.3441 69.1615 15.6605ZM59.0409 17.3573H64.1012C64.3366 17.3573 64.5562 17.3138 64.7602 17.2268C64.9642 17.1397 65.1407 17.0211 65.2898 16.8708C65.4467 16.7126 65.5683 16.5307 65.6546 16.325C65.7409 16.1193 65.784 15.8978 65.784 15.6605C65.784 15.4232 65.7409 15.2017 65.6546 14.996C65.5683 14.7904 65.4467 14.6124 65.2898 14.4621C65.1407 14.3039 64.9642 14.1813 64.7602 14.0943C64.5562 14.0073 64.3366 13.9637 64.1012 13.9637H59.0409V17.3573ZM59.0409 10.5583H64.1012C64.3366 10.5583 64.5562 10.5148 64.7602 10.4278C64.9642 10.3408 65.1407 10.2221 65.2898 10.0719C65.4467 9.91365 65.5683 9.73171 65.6546 9.52604C65.7409 9.31246 65.784 9.08701 65.784 8.8497C65.784 8.61239 65.7409 8.3909 65.6546 8.18523C65.5683 7.97957 65.4467 7.80158 65.2898 7.65129C65.1407 7.49308 64.9642 7.37047 64.7602 7.28345C64.5562 7.19644 64.3366 7.15293 64.1012 7.15293H59.0409V10.5583Z" fill="white"/>
<path d="M76.3872 17.6539C76.5127 17.6935 76.6382 17.7212 76.7638 17.737C76.8893 17.7449 77.0148 17.7488 77.1403 17.7488C77.4542 17.7488 77.7562 17.7053 78.0465 17.6183C78.3368 17.5313 78.6074 17.4087 78.8585 17.2505C79.1174 17.0844 79.3449 16.8866 79.541 16.6572C79.745 16.4199 79.9098 16.1589 80.0353 15.8741L82.3889 18.2591C82.0908 18.6862 81.7456 19.0699 81.3533 19.41C80.9689 19.7502 80.5492 20.0389 80.0941 20.2762C79.647 20.5135 79.1723 20.6915 78.6702 20.8102C78.1759 20.9367 77.666 21 77.1403 21C76.2538 21 75.4183 20.8339 74.6337 20.5016C73.857 20.1694 73.1745 19.7067 72.5861 19.1134C72.0055 18.5201 71.5465 17.8161 71.2092 17.0013C70.8718 16.1786 70.7031 15.2769 70.7031 14.296C70.7031 13.2914 70.8718 12.3738 71.2092 11.5432C71.5465 10.7126 72.0055 10.0046 72.5861 9.41925C73.1745 8.83388 73.857 8.37904 74.6337 8.05471C75.4183 7.73039 76.2538 7.56823 77.1403 7.56823C77.666 7.56823 78.1799 7.63151 78.682 7.75808C79.1841 7.88464 79.6587 8.06658 80.1059 8.30389C80.5609 8.5412 80.9846 8.83388 81.3769 9.18194C81.7691 9.52208 82.1143 9.90574 82.4125 10.3329L76.3872 17.6539ZM78.0347 10.9736C77.8857 10.9183 77.7366 10.8827 77.5875 10.8668C77.4463 10.851 77.2972 10.8431 77.1403 10.8431C76.701 10.8431 76.2852 10.9262 75.8929 11.0923C75.5085 11.2505 75.1711 11.4799 74.8808 11.7805C74.5984 12.0811 74.3748 12.445 74.2101 12.8721C74.0453 13.2914 73.9629 13.766 73.9629 14.296C73.9629 14.4146 73.9669 14.5491 73.9747 14.6994C73.9904 14.8497 74.01 15.004 74.0335 15.1622C74.0649 15.3125 74.1002 15.4588 74.1395 15.6012C74.1787 15.7436 74.2297 15.8701 74.2924 15.9809L78.0347 10.9736Z" fill="white"/>
<path d="M96.1459 20.7627H95.3692L94.1218 19.0185C93.8158 19.2953 93.4902 19.5564 93.145 19.8016C92.8077 20.0389 92.4507 20.2485 92.0741 20.4305C91.6976 20.6045 91.3092 20.7429 90.9091 20.8457C90.5168 20.9486 90.1167 21 89.7087 21C88.8222 21 87.9867 20.8497 87.2021 20.5491C86.4254 20.2485 85.7429 19.8134 85.1545 19.2439C84.5739 18.6664 84.1149 17.9624 83.7776 17.1318C83.4402 16.3013 83.2715 15.356 83.2715 14.296C83.2715 13.3072 83.4402 12.4015 83.7776 11.5788C84.1149 10.7482 84.5739 10.0363 85.1545 9.44298C85.7429 8.8497 86.4254 8.3909 87.2021 8.06658C87.9867 7.73434 88.8222 7.56823 89.7087 7.56823C90.1167 7.56823 90.5207 7.61964 90.9209 7.72248C91.321 7.82531 91.7093 7.9677 92.0859 8.14964C92.4625 8.33158 92.8195 8.54516 93.1568 8.79038C93.502 9.0356 93.8237 9.30059 94.1218 9.58537L95.3692 8.07844H96.1459V20.7627ZM92.9097 14.296C92.9097 13.853 92.8234 13.4258 92.6508 13.0145C92.486 12.5953 92.2585 12.2274 91.9682 11.911C91.6779 11.5867 91.3367 11.3296 90.9444 11.1397C90.56 10.942 90.1481 10.8431 89.7087 10.8431C89.2694 10.8431 88.8536 10.9183 88.4613 11.0686C88.0769 11.2189 87.7395 11.4403 87.4492 11.733C87.1668 12.0257 86.9432 12.3896 86.7785 12.8247C86.6137 13.2518 86.5313 13.7423 86.5313 14.296C86.5313 14.8497 86.6137 15.3441 86.7785 15.7792C86.9432 16.2063 87.1668 16.5662 87.4492 16.8589C87.7395 17.1516 88.0769 17.3731 88.4613 17.5234C88.8536 17.6737 89.2694 17.7488 89.7087 17.7488C90.1481 17.7488 90.56 17.6539 90.9444 17.4641C91.3367 17.2663 91.6779 17.0092 91.9682 16.6928C92.2585 16.3685 92.486 16.0007 92.6508 15.5893C92.8234 15.1701 92.9097 14.739 92.9097 14.296Z" fill="white"/>
<path d="M105.525 20.7627H98.1818V17.5353H105.525C105.745 17.5353 105.933 17.4562 106.09 17.298C106.247 17.1397 106.325 16.9499 106.325 16.7284C106.325 16.499 106.247 16.3487 106.09 16.2775C105.933 16.2063 105.745 16.1707 105.525 16.1707H102.183C101.626 16.1707 101.104 16.0639 100.618 15.8504C100.131 15.6368 99.7078 15.3481 99.3469 14.9842C98.986 14.6124 98.6996 14.1813 98.4878 13.6908C98.2838 13.2004 98.1818 12.6744 98.1818 12.1127C98.1818 11.5511 98.2838 11.025 98.4878 10.5346C98.6996 10.0442 98.986 9.61701 99.3469 9.25313C99.7078 8.88926 100.131 8.60448 100.618 8.39881C101.104 8.18523 101.626 8.07844 102.183 8.07844H108.691V11.3059H102.183C101.963 11.3059 101.775 11.385 101.618 11.5432C101.461 11.7014 101.383 11.8912 101.383 12.1127C101.383 12.3421 101.461 12.5399 101.618 12.706C101.775 12.8642 101.963 12.9433 102.183 12.9433H105.525C106.074 12.9433 106.592 13.0382 107.079 13.2281C107.565 13.41 107.989 13.6671 108.35 13.9993C108.71 14.3316 108.997 14.731 109.209 15.1978C109.42 15.6645 109.526 16.1747 109.526 16.7284C109.526 17.29 109.42 17.8161 109.209 18.3065C108.997 18.7891 108.71 19.2162 108.35 19.588C107.989 19.9519 107.565 20.2406 107.079 20.4542C106.592 20.6599 106.074 20.7627 105.525 20.7627Z" fill="white"/>
<path d="M117.564 20.7627C116.787 20.7627 116.058 20.6163 115.375 20.3237C114.693 20.0231 114.092 19.6157 113.575 19.1015C113.065 18.5794 112.661 17.9743 112.362 17.2861C112.072 16.5979 111.927 15.8622 111.927 15.0791V11.3059H110.362V8.07844H111.927V3H115.128V8.07844H120V11.3059H115.128V15.0791C115.128 15.4192 115.191 15.7396 115.316 16.0402C115.442 16.3329 115.614 16.59 115.834 16.8115C116.054 17.033 116.313 17.2109 116.611 17.3454C116.909 17.472 117.227 17.5353 117.564 17.5353H120V20.7627H117.564Z" fill="white"/>
<path d="M131.215 16.3486H129.116V14.9522H131.215C131.313 14.9522 131.404 14.97 131.489 15.0058C131.573 15.0417 131.646 15.0921 131.708 15.1572C131.773 15.2191 131.824 15.2923 131.86 15.377C131.895 15.4616 131.913 15.5527 131.913 15.6504C131.913 15.748 131.895 15.8392 131.86 15.9238C131.824 16.0085 131.773 16.0833 131.708 16.1484C131.646 16.2103 131.573 16.2591 131.489 16.2949C131.404 16.3307 131.313 16.3486 131.215 16.3486Z" fill="white"/>
<path d="M131.215 13.5508H129.116V12.1494H131.215C131.313 12.1494 131.404 12.1673 131.489 12.2031C131.573 12.2389 131.646 12.2894 131.708 12.3545C131.773 12.4163 131.824 12.4896 131.86 12.5742C131.895 12.6589 131.913 12.75 131.913 12.8476C131.913 12.9453 131.895 13.0381 131.86 13.126C131.824 13.2106 131.773 13.2855 131.708 13.3506C131.646 13.4124 131.573 13.4613 131.489 13.4971C131.404 13.5329 131.313 13.5508 131.215 13.5508Z" fill="white"/>
<path d="M149.843 13.5508V14.9522H147.04V13.5508C147.04 13.3587 147.076 13.178 147.148 13.0088C147.223 12.8363 147.324 12.6865 147.451 12.5596C147.577 12.4326 147.726 12.3333 147.895 12.2617C148.067 12.1869 148.25 12.1494 148.442 12.1494C148.634 12.1494 148.814 12.1869 148.984 12.2617C149.156 12.3333 149.306 12.4326 149.433 12.5596C149.56 12.6865 149.659 12.8363 149.731 13.0088C149.806 13.178 149.843 13.3587 149.843 13.5508Z" fill="white"/>
<path fill-rule="evenodd" clip-rule="evenodd" d="M127 7C125.343 7 124 8.34315 124 10V18C124 19.6569 125.343 21 127 21H151.75C153.407 21 154.75 19.6569 154.75 18V10C154.75 8.34315 153.407 7 151.75 7H127ZM133.149 16.4658C133.259 16.2119 133.315 15.9401 133.315 15.6504C133.315 15.5202 133.297 15.3867 133.261 15.25C133.229 15.11 133.18 14.9766 133.115 14.8496C133.049 14.7226 132.971 14.6071 132.88 14.5029C132.789 14.3955 132.687 14.3109 132.573 14.249C132.683 14.1807 132.784 14.0944 132.875 13.9902C132.966 13.8861 133.045 13.7705 133.11 13.6435C133.175 13.5166 133.225 13.3848 133.261 13.248C133.297 13.1113 133.315 12.9779 133.315 12.8476C133.315 12.558 133.259 12.2861 133.149 12.0322C133.038 11.7783 132.887 11.557 132.695 11.3682C132.506 11.1761 132.285 11.0247 132.031 10.9141C131.777 10.8034 131.505 10.748 131.215 10.748H127.714V17.75H131.215C131.505 17.75 131.777 17.6946 132.031 17.584C132.285 17.4733 132.506 17.3236 132.695 17.1348C132.887 16.9427 133.038 16.7197 133.149 16.4658ZM134.374 17.75H139.174V16.3486H135.776V14.9522H138.076V13.5508H135.776V12.1494H139.174V10.748H134.374V17.75ZM143.095 17.75H141.699V12.1494H139.594V10.748H145.195V12.1494H143.095V17.75ZM149.843 17.75H151.245V13.5508C151.245 13.1634 151.171 12.8004 151.025 12.4619C150.878 12.1201 150.678 11.8223 150.424 11.5683C150.17 11.3145 149.872 11.1143 149.531 10.9678C149.192 10.8213 148.829 10.748 148.442 10.748C148.054 10.748 147.69 10.8213 147.348 10.9678C147.009 11.1143 146.713 11.3145 146.459 11.5683C146.209 11.8223 146.01 12.1201 145.864 12.4619C145.717 12.8004 145.644 13.1634 145.644 13.5508V17.75H147.04V16.3486H149.843V17.75Z" fill="white"/>
</svg>
